<svg width="95" height="32" fill="none" xmlns="http://www.w3.org/2000/svg"><path d="M23.027 20.638v-7.653c0-5.217-3.703-9.623-8.563-10.666A2.323 2.323 0 0 0 12.15 0a2.323 2.323 0 0 0-2.314 2.319c-4.918 1.043-8.563 5.45-8.563 10.666v7.653H0v3.942h24.358v-3.942h-1.331Z" fill="#313CF8"/><path d="m10.761 14.145 5.092-5.102 1.851 1.914-6.943 6.956L8.852 16l-2.256-2.26 1.851-1.914 2.314 2.319Z" fill="#fff"/><path d="M20.597 26.435V32l-7.464-5.565h7.464Z" fill="#313CF8"/><path d="M46.98 5.275V8.87h-5.497v15.71h-4.166V8.87H31.88V5.275h15.1ZM53.286 10.145c4.108 0 7.752 2.956 7.752 7.362 0 4.406-3.644 7.363-7.752 7.363s-7.753-2.957-7.753-7.363c0-4.464 3.645-7.362 7.753-7.362Zm0 11.188c2.025 0 3.76-1.68 3.76-3.884 0-2.203-1.735-3.826-3.76-3.826-2.025 0-3.761 1.623-3.761 3.826 0 2.261 1.736 3.884 3.76 3.884ZM77.528 5.275V24.58H73.42v-2.087c-1.042 1.449-2.372 2.377-4.455 2.377-4.282 0-6.885-3.305-6.885-7.42 0-3.943 2.372-7.305 6.769-7.305 1.91 0 3.53.927 4.513 2.203V5.275h4.166ZM69.89 21.507c2.025 0 3.703-1.275 3.703-3.884s-1.562-4.232-3.818-4.232c-2.257 0-3.53 1.797-3.53 4 0 2.32 1.389 4.116 3.645 4.116ZM87.247 10.145c4.108 0 7.753 2.956 7.753 7.362 0 4.406-3.645 7.363-7.753 7.363-4.107 0-7.752-2.957-7.752-7.363 0-4.464 3.702-7.362 7.752-7.362Zm0 11.188c2.025 0 3.761-1.68 3.761-3.884 0-2.203-1.736-3.826-3.76-3.826-2.026 0-3.761 1.623-3.761 3.826 0 2.261 1.793 3.884 3.76 3.884Z" fill="#00265B"/></svg>
